<?xml version="1.0" encoding="utf-8"?>
<svg viewBox="0.8131 0.6955 233.825 72.043" xmlns="http://www.w3.org/2000/svg">
  <rect x="7.264" y="9.158" width="222.59" height="58.636" style="fill: rgb(255, 255, 255); stroke: rgba(0, 0, 0, 0); stroke-width: 0px;"/>
  <g transform="matrix(0.018987001851201057, 0, 0, -0.018987001851201057, 112.66596221923828, 293.79180908203125)" fill="#000000" stroke="none" style="">
    <path d="M -5621.023 15425.351 C -5752.023 15400.351 -5808.023 15367.351 -5861.023 15282.351 L -5891.023 15234.351 L -5891.023 13538.351 L -5891.023 11842.351 L -5869.023 11801.351 C -5836.023 11740.351 -5799.023 11700.351 -5747.023 11669.351 L -5701.023 11642.351 L 268.977 11642.351 L 6238.977 11642.351 L 6285.977 11669.351 C 6338.977 11701.351 6390.977 11762.351 6409.977 11815.351 C 6420.977 11845.351 6422.977 12173.351 6423.977 13538.351 L 6423.977 15223.351 L 6397.977 15275.351 C 6365.977 15339.351 6307.977 15390.351 6236.977 15417.351 C 6182.977 15437.351 6167.977 15437.351 305.977 15436.351 C -3276.023 15435.351 -5591.023 15431.351 -5621.023 15425.351 Z M -3961.023 14724.351 C -3862.023 14667.351 -3614.023 14526.351 -3410.023 14409.351 C -3205.023 14292.351 -3034.023 14197.351 -3028.023 14197.351 C -3023.023 14197.351 -3016.023 14187.351 -3012.023 14175.351 C -3004.023 14145.351 -3004.023 12948.351 -3012.023 12909.351 C -3017.023 12884.351 -3029.023 12872.351 -3070.023 12851.351 C -3098.023 12837.351 -3164.023 12800.351 -3216.023 12770.351 C -3268.023 12740.351 -3318.023 12711.351 -3326.023 12707.351 C -3393.023 12669.351 -3578.023 12563.351 -3656.023 12518.351 C -3790.023 12441.351 -3880.023 12390.351 -3961.023 12345.351 C -3999.023 12323.351 -4052.023 12293.351 -4077.023 12278.351 C -4165.023 12224.351 -4095.023 12194.351 -4716.023 12550.351 C -4840.023 12621.351 -5021.023 12724.351 -5118.023 12779.351 C -5239.023 12848.351 -5296.023 12887.351 -5300.023 12901.351 C -5304.023 12913.351 -5305.023 13204.351 -5304.023 13549.351 C -5301.023 14163.351 -5301.023 14176.351 -5281.023 14191.351 C -5270.023 14199.351 -5223.023 14228.351 -5177.023 14254.351 C -5131.023 14280.351 -5082.023 14309.351 -5067.023 14317.351 C -5053.023 14326.351 -4978.023 14368.351 -4901.023 14412.351 C -4824.023 14456.351 -4754.023 14496.351 -4745.023 14502.351 C -4736.023 14507.351 -4709.023 14523.351 -4685.023 14536.351 C -4661.023 14549.351 -4551.023 14612.351 -4441.023 14675.351 C -4190.023 14819.351 -4175.023 14827.351 -4156.023 14827.351 C -4148.023 14827.351 -4060.023 14781.351 -3961.023 14724.351 Z M 5833.977 14193.351 L 5833.977 14077.351 L 5698.977 14077.351 L 5563.977 14077.351 L 5563.977 14185.351 C 5563.977 14245.351 5565.977 14296.351 5567.977 14298.351 C 5569.977 14300.351 5630.977 14304.351 5702.977 14305.351 L 5833.977 14309.351 L 5833.977 14193.351 Z M -1864.023 14276.351 C -1758.023 14253.351 -1651.023 14179.351 -1601.023 14092.351 C -1588.023 14070.351 -1569.023 14020.351 -1560.023 13982.351 C -1522.023 13818.351 -1582.023 13650.351 -1708.023 13571.351 C -1754.023 13542.351 -1764.023 13565.351 -1596.023 13308.351 C -1529.023 13206.351 -1474.023 13119.351 -1473.023 13114.351 C -1472.023 13108.351 -1528.023 13102.351 -1611.023 13100.351 L -1751.023 13096.351 L -1790.023 13159.351 C -1812.023 13194.351 -1850.023 13256.351 -1876.023 13297.351 C -1902.023 13338.351 -1940.023 13398.351 -1960.023 13430.351 L -1996.023 13487.351 L -2066.023 13487.351 L -2136.023 13487.351 L -2136.023 13298.351 C -2136.023 13156.351 -2139.023 13108.351 -2148.023 13105.351 C -2155.023 13103.351 -2217.023 13102.351 -2286.023 13102.351 L -2411.023 13102.351 L -2414.023 13695.351 L -2416.023 14287.351 L -2167.023 14287.351 C -2020.023 14287.351 -1895.023 14282.351 -1864.023 14276.351 Z M 893.977 14087.351 L 893.977 13987.351 L 988.977 13987.351 L 1084.977 13987.351 L 1081.977 13875.351 L 1078.977 13762.351 L 986.977 13759.351 L 893.977 13756.351 L 893.977 13562.351 C 893.977 13376.351 894.977 13366.351 914.977 13346.351 C 933.977 13327.351 943.977 13325.351 1009.977 13330.351 L 1083.977 13335.351 L 1083.977 13227.351 C 1083.977 13104.351 1092.977 13117.351 985.977 13096.351 C 913.977 13083.351 821.977 13089.351 766.977 13112.351 C 714.977 13134.351 678.977 13170.351 651.977 13231.351 C 630.977 13279.351 628.977 13297.351 625.977 13519.351 L 621.977 13756.351 L 560.977 13759.351 L 498.977 13762.351 L 498.977 13872.351 L 498.977 13982.351 L 561.977 13985.351 L 623.977 13988.351 L 623.977 14087.351 L 623.977 14187.351 L 758.977 14187.351 L 893.977 14187.351 L 893.977 14087.351 Z M -771.023 13983.351 C -662.023 13954.351 -550.023 13875.351 -495.023 13788.351 C -442.023 13705.351 -423.023 13627.351 -428.023 13513.351 C -432.023 13424.351 -436.023 13404.351 -465.023 13345.351 C -539.023 13194.351 -684.023 13101.351 -860.023 13089.351 C -990.023 13081.351 -1107.023 13120.351 -1205.023 13203.351 C -1363.023 13339.351 -1398.023 13615.351 -1278.023 13790.351 C -1167.023 13950.351 -953.023 14032.351 -771.023 13983.351 Z M 151.977 13982.351 C 179.977 13973.351 224.977 13949.351 252.977 13927.351 C 300.977 13889.351 354.977 13814.351 357.977 13780.351 C 358.977 13766.351 295.977 13742.351 177.977 13713.351 C 162.977 13709.351 145.977 13718.351 115.977 13747.351 C 73.977 13789.351 51.977 13795.351 9.977 13776.351 C -34.023 13756.351 -35.023 13712.351 6.977 13684.351 C 18.977 13676.351 62.977 13658.351 103.977 13644.351 C 329.977 13568.351 393.977 13507.351 393.977 13367.351 C 393.977 13286.351 368.977 13232.351 303.977 13174.351 C 231.977 13109.351 144.977 13083.351 15.977 13089.351 C -68.023 13092.351 -90.023 13097.351 -141.023 13122.351 C -210.023 13157.351 -267.023 13210.351 -296.023 13266.351 C -327.023 13328.351 -324.023 13334.351 -248.023 13356.351 C -109.023 13398.351 -118.023 13398.351 -72.023 13349.351 C -37.023 13313.351 -22.023 13304.351 14.977 13300.351 C 95.977 13291.351 153.977 13341.351 115.977 13387.351 C 105.977 13398.351 54.977 13425.351 -0.023 13447.351 C -218.023 13534.351 -296.023 13621.351 -284.023 13764.351 C -275.023 13866.351 -196.023 13950.351 -80.023 13982.351 C -13.023 14000.351 89.977 14000.351 151.977 13982.351 Z M 2873.977 13972.351 C 2892.977 13963.351 2923.977 13944.351 2941.977 13930.351 L 2973.977 13906.351 L 2973.977 13946.351 L 2973.977 13987.351 L 3108.977 13987.351 L 3243.977 13987.351 L 3241.977 13545.351 L 3238.977 13102.351 L 3106.977 13099.351 L 2973.977 13095.351 L 2973.977 13140.351 L 2973.977 13185.351 L 2943.977 13157.351 C 2896.977 13113.351 2845.977 13094.351 2763.977 13089.351 C 2508.977 13075.351 2313.977 13269.351 2313.977 13537.351 C 2313.977 13752.351 2421.977 13910.351 2617.977 13979.351 C 2682.977 14002.351 2822.977 13998.351 2873.977 13972.351 Z M 3917.977 13983.351 C 3944.977 13975.351 3982.977 13957.351 4004.977 13943.351 C 4050.977 13912.351 4050.977 13912.351 4050.977 13935.351 C 4050.977 13990.351 4043.977 13987.351 4183.977 13987.351 L 4314.977 13987.351 L 4311.977 13495.351 C 4308.977 13005.351 4308.977 13002.351 4285.977 12960.351 C 4221.977 12839.351 4069.977 12762.351 3878.977 12753.351 C 3784.977 12748.351 3684.977 12761.351 3643.977 12782.351 L 3613.977 12798.351 L 3613.977 12902.351 C 3613.977 13019.351 3610.977 13015.351 3687.977 12992.351 C 3716.977 12983.351 3776.977 12977.351 3831.977 12977.351 C 3984.977 12977.351 4039.977 13014.351 4050.977 13125.351 L 4056.977 13182.351 L 4022.977 13156.351 C 3963.977 13111.351 3923.977 13095.351 3848.977 13090.351 C 3563.977 13068.351 3350.977 13314.351 3393.977 13617.351 C 3418.977 13796.351 3532.977 13928.351 3707.977 13983.351 C 3762.977 14000.351 3860.977 14000.351 3917.977 13983.351 Z M 5007.977 13977.351 C 5038.977 13967.351 5076.977 13948.351 5091.977 13936.351 L 5118.977 13915.351 L 5121.977 13951.351 L 5124.977 13987.351 L 5259.977 13987.351 L 5393.977 13987.351 L 5393.977 13548.351 L 5393.977 13109.351 L 5280.977 13102.351 C 5132.977 13093.351 5129.977 13093.351 5123.977 13141.351 C 5118.977 13177.351 5117.977 13179.351 5104.977 13163.351 C 5096.977 13153.351 5066.977 13133.351 5039.977 13119.351 C 4994.977 13095.351 4977.977 13092.351 4888.977 13092.351 C 4792.977 13092.351 4784.977 13094.351 4713.977 13129.351 C 4587.977 13191.351 4509.977 13287.351 4478.977 13418.351 C 4438.977 13590.351 4479.977 13753.351 4593.977 13868.351 C 4707.977 13984.351 4866.977 14026.351 5007.977 13977.351 Z M 1472.977 13930.351 C 1488.977 13898.351 1535.977 13791.351 1578.977 13692.351 C 1620.977 13593.351 1665.977 13493.351 1677.977 13469.351 L 1699.977 13426.351 L 1788.977 13634.351 C 1837.977 13748.351 1891.977 13875.351 1909.977 13915.351 L 1942.977 13987.351 L 2072.977 13987.351 C 2144.977 13987.351 2203.977 13983.351 2203.977 13979.351 C 2203.977 13974.351 2178.977 13915.351 2147.977 13846.351 C 2017.977 13557.351 1835.977 13149.351 1761.977 12982.351 C 1718.977 12883.351 1675.977 12796.351 1666.977 12790.351 C 1650.977 12777.351 1403.977 12770.351 1403.977 12782.351 C 1403.977 12785.351 1439.977 12865.351 1482.977 12959.351 C 1558.977 13123.351 1561.977 13133.351 1548.977 13162.351 C 1541.977 13178.351 1486.977 13302.351 1425.977 13437.351 C 1226.977 13883.351 1183.977 13979.351 1183.977 13983.351 C 1183.977 13985.351 1241.977 13987.351 1313.977 13987.351 L 1443.977 13987.351 L 1472.977 13930.351 Z M 5833.977 13548.351 L 5833.977 13110.351 L 5781.977 13103.351 C 5752.977 13100.351 5691.977 13097.351 5646.977 13097.351 L 5563.977 13097.351 L 5563.977 13542.351 L 5563.977 13987.351 L 5698.977 13987.351 L 5833.977 13987.351 L 5833.977 13548.351 Z" style="fill: rgb(72, 72, 245);"/>
    <path d="M -4221.023 14563.351 C -4243.023 14550.351 -4290.023 14523.351 -4326.023 14502.351 C -4362.023 14481.351 -4414.023 14452.351 -4443.023 14436.351 C -4471.023 14420.351 -4547.023 14376.351 -4613.023 14339.351 C -4678.023 14301.351 -4782.023 14242.351 -4843.023 14206.351 C -4913.023 14167.351 -4956.023 14136.351 -4956.023 14126.351 C -4956.023 14107.351 -4786.023 14007.351 -4753.023 14007.351 C -4741.023 14007.351 -4605.023 14079.351 -4451.023 14167.351 C -4297.023 14255.351 -4167.023 14327.351 -4162.023 14327.351 C -4157.023 14327.351 -4107.023 14301.351 -4052.023 14270.351 C -3791.023 14124.351 -3802.023 14130.351 -3665.023 14051.351 C -3623.023 14027.351 -3578.023 14007.351 -3565.023 14007.351 C -3541.023 14007.351 -3394.023 14085.351 -3366.023 14112.351 C -3357.023 14122.351 -3355.023 14130.351 -3361.023 14136.351 C -3371.023 14146.351 -3554.023 14257.351 -3560.023 14257.351 C -3562.023 14257.351 -3603.023 14280.351 -3652.023 14309.351 C -3701.023 14337.351 -3788.023 14387.351 -3846.023 14420.351 C -3904.023 14453.351 -3967.023 14489.351 -3986.023 14500.351 C -4091.023 14560.351 -4146.023 14587.351 -4162.023 14586.351 C -4173.023 14586.351 -4199.023 14575.351 -4221.023 14563.351 Z" style="fill: rgb(79, 219, 227);"/>
    <path d="M -4321.023 14001.351 C -4337.023 13992.351 -4382.023 13966.351 -4421.023 13944.351 C -4521.023 13885.351 -4566.023 13859.351 -4603.023 13840.351 C -4621.023 13831.351 -4638.023 13815.351 -4642.023 13805.351 C -4649.023 13782.351 -4649.023 13397.351 -4642.023 13390.351 C -4636.023 13384.351 -4602.023 13401.351 -4481.023 13469.351 C -4437.023 13494.351 -4376.023 13528.351 -4345.023 13546.351 C -4314.023 13563.351 -4283.023 13583.351 -4277.023 13591.351 C -4262.023 13608.351 -4266.023 14009.351 -4281.023 14013.351 C -4286.023 14015.351 -4304.023 14009.351 -4321.023 14001.351 Z" style="fill: rgb(75, 218, 226);"/>
    <path d="M -4050.023 14001.351 C -4053.023 13992.351 -4056.023 13901.351 -4056.023 13798.351 C -4056.023 13663.351 -4052.023 13606.351 -4043.023 13595.351 C -4037.023 13587.351 -3955.023 13536.351 -3861.023 13483.351 C -3706.023 13395.351 -3690.023 13388.351 -3679.023 13404.351 C -3665.023 13423.351 -3660.023 13793.351 -3674.023 13812.351 C -3682.023 13825.351 -4022.023 14017.351 -4035.023 14017.351 C -4040.023 14017.351 -4047.023 14010.351 -4050.023 14001.351 Z" style="fill: rgb(79, 219, 227);"/>
    <path d="M -5087.023 13905.351 C -5087.023 13892.351 -5087.023 13687.351 -5087.023 13448.351 C -5087.023 13043.351 -5086.023 13012.351 -5069.023 12996.351 C -5044.023 12972.351 -4298.023 12547.351 -4281.023 12547.351 C -4269.023 12547.351 -4266.023 12568.351 -4266.023 12665.351 C -4266.023 12729.351 -4270.023 12787.351 -4274.023 12793.351 C -4283.023 12807.351 -4368.023 12858.351 -4597.023 12986.351 C -4660.023 13021.351 -4742.023 13069.351 -4781.023 13092.351 L -4851.023 13133.351 L -4858.023 13188.351 C -4862.023 13218.351 -4865.023 13371.351 -4864.023 13529.351 C -4863.023 13687.351 -4864.023 13818.351 -4866.023 13820.351 C -4885.023 13837.351 -5056.023 13927.351 -5069.023 13927.351 C -5080.023 13927.351 -5086.023 13919.351 -5087.023 13905.351 Z" style="fill: rgb(79, 219, 227);"/>
    <path d="M -3351.023 13876.351 C -3400.023 13848.351 -3444.023 13819.351 -3448.023 13813.351 C -3452.023 13807.351 -3456.023 13660.351 -3456.023 13487.351 C -3456.023 13314.351 -3459.023 13163.351 -3462.023 13152.351 C -3468.023 13130.351 -3460.023 13134.351 -3706.023 12995.351 C -3951.023 12855.351 -4018.023 12816.351 -4038.023 12799.351 C -4053.023 12786.351 -4056.023 12766.351 -4056.023 12671.351 C -4056.023 12605.351 -4052.023 12556.351 -4046.023 12552.351 C -4040.023 12548.351 -4001.023 12564.351 -3958.023 12587.351 C -3871.023 12635.351 -3528.023 12829.351 -3396.023 12906.351 C -3371.023 12920.351 -3334.023 12941.351 -3313.023 12952.351 C -3291.023 12963.351 -3263.023 12982.351 -3250.023 12994.351 L -3226.023 13016.351 L -3228.023 13469.351 C -3231.023 13862.351 -3233.023 13922.351 -3246.023 13925.351 C -3254.023 13926.351 -3301.023 13904.351 -3351.023 13876.351 Z" style="fill: rgb(79, 219, 227);"/>
    <path d="M -4257.023 13359.351 C -4304.023 13333.351 -4349.023 13307.351 -4357.023 13301.351 C -4365.023 13295.351 -4398.023 13275.351 -4431.023 13258.351 C -4503.023 13219.351 -4519.023 13205.351 -4511.023 13186.351 C -4506.023 13173.351 -4225.023 13005.351 -4173.023 12985.351 C -4160.023 12979.351 -4134.023 12989.351 -4088.023 13015.351 C -4051.023 13037.351 -4014.023 13057.351 -4006.023 13060.351 C -3998.023 13064.351 -3950.023 13090.351 -3901.023 13119.351 C -3841.023 13155.351 -3810.023 13179.351 -3808.023 13192.351 C -3806.023 13209.351 -3835.023 13230.351 -3975.023 13310.351 C -4069.023 13363.351 -4151.023 13407.351 -4158.023 13407.351 C -4165.023 13406.351 -4210.023 13385.351 -4257.023 13359.351 Z" style="fill: rgb(79, 219, 227);"/>
    <path d="M -2136.023 13882.351 L -2136.023 13727.351 L -2036.023 13727.351 C -1871.023 13727.351 -1820.023 13768.351 -1828.023 13895.351 C -1832.023 13952.351 -1836.023 13963.351 -1864.023 13988.351 C -1905.023 14024.351 -1953.023 14037.351 -2053.023 14037.351 L -2136.023 14037.351 L -2136.023 13882.351 Z" style="fill: rgb(72, 72, 245);"/>
    <path d="M -966.023 13746.351 C -1041.023 13715.351 -1086.023 13636.351 -1086.023 13537.351 C -1086.023 13459.351 -1074.023 13426.351 -1029.023 13386.351 C -935.023 13301.351 -838.023 13298.351 -752.023 13377.351 C -655.023 13466.351 -664.023 13637.351 -769.023 13721.351 C -802.023 13747.351 -817.023 13752.351 -874.023 13754.351 C -911.023 13756.351 -952.023 13752.351 -966.023 13746.351 Z" style="fill: rgb(72, 72, 245);"/>
    <path d="M 2748.977 13757.351 C 2639.977 13739.351 2573.977 13659.351 2573.977 13544.351 C 2573.977 13412.351 2659.977 13324.351 2788.977 13323.351 C 2887.977 13323.351 2951.977 13379.351 2974.977 13485.351 C 3010.977 13653.351 2902.977 13783.351 2748.977 13757.351 Z" style="fill: rgb(72, 72, 245);"/>
    <path d="M 3820.977 13757.351 C 3714.977 13739.351 3649.977 13656.351 3651.977 13543.351 C 3652.977 13469.351 3662.977 13440.351 3704.977 13393.351 C 3776.977 13310.351 3904.977 13297.351 3984.977 13364.351 C 4030.977 13403.351 4053.977 13460.351 4053.977 13540.351 C 4053.977 13655.351 4009.977 13726.351 3919.977 13752.351 C 3892.977 13760.351 3869.977 13766.351 3869.977 13766.351 C 3868.977 13765.351 3846.977 13761.351 3820.977 13757.351 Z" style="fill: rgb(72, 72, 245);"/>
    <path d="M 4822.977 13729.351 C 4767.977 13693.351 4745.977 13661.351 4730.977 13592.351 C 4700.977 13447.351 4793.977 13324.351 4933.977 13324.351 C 5050.977 13324.351 5122.977 13393.351 5131.977 13515.351 C 5136.977 13593.351 5123.977 13645.351 5086.977 13694.351 C 5052.977 13738.351 5006.977 13757.351 4931.977 13757.351 C 4878.977 13757.351 4859.977 13752.351 4822.977 13729.351 Z" style="fill: rgb(72, 72, 245);"/>
  </g>
</svg>