<svg width="222" height="40" viewBox="0 0 222 40" fill="none" xmlns="http://www.w3.org/2000/svg">
<path d="M44.512 31L48.992 8.6H58.56C61.44 8.6 63.6587 9.22933 65.216 10.488C66.7947 11.7467 67.584 13.496 67.584 15.736C67.584 17.6133 67.1253 19.256 66.208 20.664C65.312 22.0507 64.032 23.128 62.368 23.896C60.704 24.664 58.7413 25.048 56.48 25.048H49.216L52.576 22.328L50.848 31H44.512ZM58.56 31L53.984 22.84H60.544L65.184 31H58.56ZM52.416 23.064L50.208 20.152H56.768C58.176 20.152 59.264 19.8213 60.032 19.16C60.8 18.4987 61.184 17.56 61.184 16.344C61.184 15.4053 60.8747 14.712 60.256 14.264C59.6373 13.816 58.7733 13.592 57.664 13.592H51.552L54.944 10.584L52.416 23.064ZM77.5435 31.288C75.7088 31.288 74.1088 30.9573 72.7435 30.296C71.3782 29.6347 70.3222 28.7173 69.5755 27.544C68.8288 26.3493 68.4555 24.9627 68.4555 23.384C68.4555 21.464 68.9142 19.7573 69.8315 18.264C70.7488 16.7493 72.0075 15.5547 73.6075 14.68C75.2075 13.8053 77.0422 13.368 79.1115 13.368C80.9675 13.368 82.5675 13.6987 83.9115 14.36C85.2768 15 86.3328 15.9067 87.0795 17.08C87.8262 18.2533 88.1995 19.64 88.1995 21.24C88.1995 23.16 87.7408 24.8773 86.8235 26.392C85.9062 27.9067 84.6475 29.1013 83.0475 29.976C81.4475 30.8507 79.6128 31.288 77.5435 31.288ZM77.8955 26.456C78.7062 26.456 79.4208 26.2533 80.0395 25.848C80.6582 25.4213 81.1382 24.8453 81.4795 24.12C81.8422 23.3947 82.0235 22.5413 82.0235 21.56C82.0235 20.6 81.7355 19.8 81.1595 19.16C80.6048 18.52 79.8048 18.2 78.7595 18.2C77.9488 18.2 77.2342 18.4027 76.6155 18.808C75.9968 19.2133 75.5062 19.7893 75.1435 20.536C74.8022 21.2613 74.6315 22.1147 74.6315 23.096C74.6315 24.12 74.9195 24.9413 75.4955 25.56C76.0715 26.1573 76.8715 26.456 77.8955 26.456ZM95.9768 31.288C94.4408 31.288 92.9901 31.128 91.6248 30.808C90.2594 30.4667 89.2034 30.0613 88.4567 29.592L90.6648 25.336C91.4754 25.848 92.4248 26.2427 93.5128 26.52C94.6008 26.7973 95.6568 26.936 96.6808 26.936C97.6834 26.936 98.3981 26.8293 98.8248 26.616C99.2514 26.3813 99.4648 26.072 99.4648 25.688C99.4648 25.3467 99.2408 25.1013 98.7928 24.952C98.3661 24.7813 97.8114 24.6427 97.1288 24.536C96.4461 24.4293 95.7208 24.2907 94.9528 24.12C94.2061 23.9493 93.4914 23.704 92.8088 23.384C92.1261 23.064 91.5608 22.616 91.1128 22.04C90.6861 21.4427 90.4728 20.6533 90.4728 19.672C90.4728 18.2853 90.8781 17.1227 91.6888 16.184C92.4994 15.2453 93.5981 14.5413 94.9848 14.072C96.3928 13.6027 97.9714 13.368 99.7208 13.368C100.958 13.368 102.153 13.4853 103.305 13.72C104.457 13.9547 105.459 14.296 106.313 14.744L104.169 19C103.315 18.488 102.441 18.1467 101.545 17.976C100.649 17.784 99.8061 17.688 99.0168 17.688C98.0141 17.688 97.2994 17.816 96.8728 18.072C96.4461 18.328 96.2328 18.6373 96.2328 19C96.2328 19.32 96.4461 19.576 96.8728 19.768C97.3208 19.9387 97.8754 20.088 98.5368 20.216C99.2194 20.3227 99.9448 20.4613 100.713 20.632C101.481 20.7813 102.195 21.016 102.857 21.336C103.539 21.656 104.094 22.104 104.521 22.68C104.969 23.256 105.193 24.0347 105.193 25.016C105.193 26.3813 104.777 27.5333 103.945 28.472C103.134 29.4107 102.035 30.1147 100.649 30.584C99.2621 31.0533 97.7048 31.288 95.9768 31.288ZM114.373 31.288C113.029 31.288 111.877 31.032 110.917 30.52C109.957 29.9867 109.274 29.2187 108.869 28.216C108.463 27.192 108.399 25.976 108.677 24.568L111.621 9.784H117.701L114.757 24.536C114.65 25.1973 114.725 25.7093 114.981 26.072C115.237 26.4133 115.674 26.584 116.293 26.584C116.613 26.584 116.922 26.5413 117.221 26.456C117.519 26.3707 117.818 26.2427 118.117 26.072L118.885 30.264C118.245 30.6267 117.53 30.8827 116.741 31.032C115.973 31.2027 115.183 31.288 114.373 31.288ZM107.269 18.84L108.197 14.296H120.741L119.845 18.84H107.269ZM122.709 37.496C121.791 37.496 120.885 37.3573 119.989 37.08C119.071 36.8027 118.346 36.44 117.813 35.992L120.533 31.704C120.895 32.0027 121.301 32.2373 121.749 32.408C122.197 32.6 122.687 32.696 123.221 32.696C123.818 32.696 124.33 32.5467 124.757 32.248C125.183 31.9493 125.589 31.48 125.973 30.84L127.221 28.824L127.733 28.216L136.469 13.656H142.421L131.317 31.768C130.421 33.24 129.546 34.392 128.693 35.224C127.839 36.056 126.933 36.6427 125.973 36.984C125.013 37.3253 123.925 37.496 122.709 37.496ZM125.909 31.736L121.845 13.656H127.893L130.773 27.672L125.909 31.736ZM147.972 31.288C146.734 31.288 145.55 30.9787 144.42 30.36C143.289 29.7413 142.372 28.8453 141.668 27.672C140.985 26.4987 140.644 25.0693 140.644 23.384C140.644 21.9333 140.889 20.6 141.38 19.384C141.87 18.168 142.542 17.112 143.396 16.216C144.27 15.32 145.273 14.6267 146.404 14.136C147.556 13.624 148.772 13.368 150.052 13.368C151.46 13.368 152.665 13.6453 153.668 14.2C154.692 14.7333 155.438 15.608 155.908 16.824C156.377 18.0187 156.484 19.64 156.228 21.688C156.036 23.6293 155.577 25.3253 154.852 26.776C154.126 28.2267 153.188 29.3467 152.036 30.136C150.884 30.904 149.529 31.288 147.972 31.288ZM150.084 26.392C150.894 26.392 151.609 26.1893 152.228 25.784C152.846 25.3787 153.326 24.8133 153.668 24.088C154.03 23.3627 154.212 22.52 154.212 21.56C154.212 20.5573 153.924 19.7573 153.348 19.16C152.772 18.5413 151.961 18.232 150.916 18.232C150.126 18.232 149.412 18.4453 148.772 18.872C148.153 19.2773 147.662 19.8427 147.3 20.568C146.958 21.2933 146.788 22.136 146.788 23.096C146.788 24.0987 147.076 24.8987 147.652 25.496C148.228 26.0933 149.038 26.392 150.084 26.392ZM152.644 31L153.252 28.088L154.404 22.36L155.172 16.632L155.78 13.656H161.86L158.404 31H152.644ZM170.158 37.496C168.43 37.496 166.851 37.304 165.422 36.92C163.992 36.5573 162.755 36.0027 161.71 35.256L164.43 31.032C165.112 31.5653 165.976 31.992 167.022 32.312C168.088 32.6533 169.187 32.824 170.318 32.824C171.896 32.824 173.059 32.4827 173.806 31.8C174.552 31.1387 175.054 30.1787 175.31 28.92L175.854 26.232L177.07 21.72L178.03 16.824L178.638 13.656H184.43L181.614 27.8C180.931 31.2347 179.608 33.7093 177.646 35.224C175.704 36.7387 173.208 37.496 170.158 37.496ZM170.606 30.104C169.24 30.104 167.982 29.816 166.83 29.24C165.678 28.6427 164.75 27.8 164.046 26.712C163.363 25.6027 163.022 24.2693 163.022 22.712C163.022 21.4107 163.256 20.1947 163.726 19.064C164.216 17.9333 164.888 16.9413 165.742 16.088C166.616 15.2347 167.63 14.5733 168.782 14.104C169.934 13.6133 171.182 13.368 172.526 13.368C173.806 13.368 174.936 13.6133 175.918 14.104C176.92 14.5947 177.667 15.4053 178.158 16.536C178.67 17.6667 178.798 19.2027 178.542 21.144C178.328 23.0427 177.87 24.664 177.166 26.008C176.483 27.3307 175.587 28.344 174.478 29.048C173.368 29.752 172.078 30.104 170.606 30.104ZM172.398 25.24C173.208 25.24 173.912 25.0693 174.51 24.728C175.128 24.3867 175.608 23.9067 175.95 23.288C176.312 22.648 176.494 21.912 176.494 21.08C176.494 20.2267 176.206 19.544 175.63 19.032C175.075 18.4987 174.286 18.232 173.262 18.232C172.451 18.232 171.736 18.4133 171.118 18.776C170.499 19.1173 170.008 19.608 169.646 20.248C169.304 20.8667 169.134 21.592 169.134 22.424C169.134 23.2773 169.422 23.96 169.998 24.472C170.595 24.984 171.395 25.24 172.398 25.24ZM192.784 31.288C191.547 31.288 190.363 30.9787 189.232 30.36C188.102 29.7413 187.184 28.8453 186.48 27.672C185.798 26.4987 185.456 25.0693 185.456 23.384C185.456 21.9333 185.702 20.6 186.192 19.384C186.683 18.168 187.355 17.112 188.208 16.216C189.083 15.32 190.086 14.6267 191.216 14.136C192.368 13.624 193.584 13.368 194.864 13.368C196.272 13.368 197.478 13.6453 198.48 14.2C199.504 14.7333 200.251 15.608 200.72 16.824C201.19 18.0187 201.296 19.64 201.04 21.688C200.848 23.6293 200.39 25.3253 199.664 26.776C198.939 28.2267 198 29.3467 196.848 30.136C195.696 30.904 194.342 31.288 192.784 31.288ZM194.896 26.392C195.707 26.392 196.422 26.1893 197.04 25.784C197.659 25.3787 198.139 24.8133 198.48 24.088C198.843 23.3627 199.024 22.52 199.024 21.56C199.024 20.5573 198.736 19.7573 198.16 19.16C197.584 18.5413 196.774 18.232 195.728 18.232C194.939 18.232 194.224 18.4453 193.584 18.872C192.966 19.2773 192.475 19.8427 192.112 20.568C191.771 21.2933 191.6 22.136 191.6 23.096C191.6 24.0987 191.888 24.8987 192.464 25.496C193.04 26.0933 193.851 26.392 194.896 26.392ZM197.456 31L198.064 28.088L199.216 22.36L199.984 16.632L200.592 13.656H206.672L203.216 31H197.456ZM207.13 31L210.586 13.656H216.634L213.178 31H207.13ZM214.458 11.736C213.392 11.736 212.538 11.448 211.898 10.872C211.28 10.2747 210.97 9.56 210.97 8.728C210.97 7.74667 211.322 6.92533 212.026 6.264C212.752 5.60267 213.701 5.272 214.874 5.272C215.941 5.272 216.794 5.54933 217.434 6.104C218.074 6.65867 218.394 7.352 218.394 8.184C218.394 9.22933 218.032 10.0827 217.306 10.744C216.581 11.4053 215.632 11.736 214.458 11.736Z" fill="white"/>
<path d="M16.4428 1.43721C16.025 1.68404 15.1326 2.19669 14.4491 2.59541C13.7656 2.99414 12.7783 3.54476 12.2276 3.84856C11.696 4.15235 10.253 4.98778 8.99985 5.6903C7.76569 6.4118 5.79104 7.53203 4.63284 8.21557C3.30375 8.95606 2.4873 9.54466 2.4873 9.73453C2.4873 10.0953 5.7151 11.994 6.34167 11.994C6.56951 11.994 9.15174 10.6269 12.0757 8.95606C14.9997 7.2852 17.468 5.91814 17.563 5.91814C17.6579 5.91814 18.6073 6.4118 19.6516 7.0004C24.6072 9.7725 24.3983 9.65858 26.9995 11.1586C27.797 11.6142 28.6514 11.994 28.8982 11.994C29.3539 11.994 32.145 10.513 32.6766 10.0003C32.8475 9.81048 32.8855 9.65858 32.7716 9.54466C32.5817 9.35479 29.1071 7.24723 28.9932 7.24723C28.9552 7.24723 28.1767 6.81053 27.2464 6.25991C26.316 5.72827 24.6641 4.77892 23.5629 4.15235C22.4616 3.52578 21.2654 2.84225 20.9047 2.63339C18.9111 1.49417 17.8668 0.981519 17.563 1.00051C17.3541 1.00051 16.8605 1.20936 16.4428 1.43721Z" fill="#4FDBE3"/>
<path d="M14.544 12.1079C14.2402 12.2788 13.3858 12.7724 12.6453 13.1902C10.7466 14.3104 9.89221 14.8041 9.18969 15.1648C8.84793 15.3357 8.52515 15.6395 8.4492 15.8293C8.31629 16.2661 8.31629 23.576 8.4492 23.709C8.56312 23.8229 9.20868 23.5001 11.5061 22.209C12.3415 21.7343 13.4997 21.0887 14.0883 20.747C14.6769 20.4242 15.2655 20.0445 15.3795 19.8926C15.6643 19.5698 15.5883 11.956 15.3035 11.8801C15.2086 11.8421 14.8668 11.956 14.544 12.1079Z" fill="#4BDAE2"/>
<path d="M19.6895 12.1079C19.6326 12.2788 19.5756 14.0066 19.5756 15.9623C19.5756 18.5255 19.6515 19.6078 19.8224 19.8166C19.9363 19.9685 21.4933 20.9369 23.2781 21.9432C26.221 23.614 26.5248 23.7469 26.7337 23.4431C26.9995 23.0824 27.0944 16.0572 26.8286 15.6964C26.6767 15.4496 20.2212 11.8041 19.9743 11.8041C19.8794 11.8041 19.7465 11.937 19.6895 12.1079Z" fill="#4FDBE3"/>
<path d="M0 13.9306C0 14.1775 0 18.0698 0 22.6077C0 30.2974 0.018987 30.886 0.341766 31.1898C0.816441 31.6455 14.9807 39.715 15.3035 39.715C15.5314 39.715 15.5883 39.3163 15.5883 37.4745C15.5883 36.2594 15.5124 35.1581 15.4364 35.0442C15.2655 34.7784 13.6517 33.81 9.30363 31.3797C8.10745 30.7151 6.55052 29.8038 5.81002 29.3671L4.48093 28.5886L4.34802 27.5443C4.27208 26.9747 4.21511 24.0697 4.2341 21.0698C4.25309 18.0698 4.2341 15.5825 4.19613 15.5445C3.83537 15.2218 0.588597 13.5129 0.341766 13.5129C0.132909 13.5129 0.018987 13.6648 0 13.9306Z" fill="#4FDBE3"/>
<path d="M32.9614 14.4813C32.0311 15.0129 31.1956 15.5635 31.1197 15.6774C31.0437 15.7914 30.9678 18.5825 30.9678 21.8672C30.9678 25.152 30.9108 28.019 30.8539 28.2279C30.7399 28.6456 30.8918 28.5696 26.221 31.2088C21.5692 33.867 20.2971 34.6075 19.9174 34.9303C19.6326 35.1771 19.5756 35.5568 19.5756 37.3606C19.5756 38.6137 19.6515 39.5441 19.7655 39.6201C19.8794 39.696 20.6199 39.3922 21.4363 38.9555C23.0882 38.0441 29.6007 34.3607 32.107 32.8987C32.5817 32.6328 33.2842 32.2341 33.6829 32.0253C34.1006 31.8164 34.6323 31.4556 34.8791 31.2278L35.3348 30.8101L35.2968 22.209C35.2399 14.7471 35.2019 13.6079 34.9551 13.5509C34.8032 13.5319 33.9108 13.9496 32.9614 14.4813Z" fill="#4FDBE3"/>
<path d="M15.7592 24.2976C14.8668 24.7912 14.0124 25.2849 13.8605 25.3988C13.7086 25.5127 13.082 25.8925 12.4554 26.2152C11.0884 26.9557 10.7846 27.2216 10.9365 27.5823C11.0314 27.8291 16.3668 31.019 17.3541 31.3987C17.6009 31.5126 18.0946 31.3227 18.968 30.8291C19.6705 30.4114 20.373 30.0316 20.5249 29.9747C20.6768 29.8987 21.5882 29.4051 22.5186 28.8544C23.6578 28.1709 24.2464 27.7152 24.2843 27.4684C24.3223 27.1456 23.7717 26.7469 21.1135 25.2279C19.3287 24.2216 17.7718 23.3862 17.6389 23.3862C17.506 23.4052 16.6516 23.8039 15.7592 24.2976Z" fill="#4FDBE3"/>
</svg>
